<?xml version="1.0" standalone="no"?>
<!DOCTYPE svg PUBLIC "-//W3C//DTD SVG 20010904//EN"
 "http://www.w3.org/TR/2001/REC-SVG-20010904/DTD/svg10.dtd">
<svg version="1.0" xmlns="http://www.w3.org/2000/svg"
 width="1199.000000pt" height="1280.000000pt" viewBox="0 0 1199.000000 1280.000000"
 preserveAspectRatio="xMidYMid meet">
<metadata>
Created by potrace 1.15, written by Peter Selinger 2001-2017
</metadata>
<g transform="translate(0.000000,1280.000000) scale(0.100000,-0.100000)"
fill="#18ff18" stroke="none">
<path d="M6176 12773 c-4 -10 -104 -279 -221 -598 -117 -319 -218 -591 -222
-604 -8 -21 -33 15 -218 320 -230 379 -214 354 -219 348 -2 -2 -16 -141 -31
-309 -15 -168 -30 -322 -34 -342 l-6 -37 -364 215 c-200 118 -364 214 -366
212 -1 -2 24 -59 55 -128 171 -371 246 -671 284 -1140 9 -102 18 -213 21 -248
l6 -62 -153 6 c-336 14 -730 -45 -1104 -167 -252 -81 -489 -181 -1099 -464
-677 -314 -1003 -448 -1450 -597 -273 -90 -740 -215 -979 -260 -36 -7 -66 -16
-66 -20 0 -5 6 -8 13 -8 6 0 80 -20 162 -45 403 -122 957 -245 1265 -280 85
-10 111 -16 104 -26 -11 -18 -313 -259 -484 -386 -305 -226 -575 -404 -885
-583 -88 -50 -162 -94 -165 -97 -7 -8 458 5 643 17 291 20 643 62 862 105 44
8 84 15 90 15 15 0 -270 -283 -458 -456 -207 -190 -436 -381 -629 -528 l-148
-111 128 -3 c201 -5 597 25 845 64 54 9 100 14 102 12 2 -2 -5 -68 -15 -148
-32 -247 -43 -525 -35 -892 l7 -338 -39 0 c-100 0 -211 -75 -254 -172 -31 -70
-32 -173 -2 -239 43 -97 145 -167 246 -172 l55 -2 6 -160 c3 -88 10 -322 16
-520 12 -397 35 -851 51 -990 18 -171 104 -432 218 -670 119 -247 230 -407
406 -580 254 -253 555 -407 941 -484 113 -22 145 -19 207 23 37 25 48 26 130
7 177 -41 238 -52 502 -90 318 -45 656 -76 1255 -113 281 -17 1570 -17 1860 0
621 37 917 65 1415 133 83 12 168 23 190 25 22 2 70 8 107 14 37 5 83 10 102
10 20 0 36 2 36 5 0 3 -17 21 -37 41 -35 33 -34 33 17 -7 105 -80 148 -85 316
-38 570 159 974 448 1231 881 132 223 239 521 273 764 28 205 80 1349 80 1785
0 115 2 132 26 184 32 70 36 158 9 225 -17 42 -18 79 -16 495 3 447 -2 582
-35 855 -44 369 -146 775 -276 1105 -22 55 -49 122 -59 148 l-19 48 97 100
c108 111 234 211 363 289 95 57 84 57 -80 3 -137 -45 -265 -106 -369 -177 -46
-31 -84 -56 -86 -54 -1 2 -32 61 -69 132 -66 128 -66 129 -48 150 23 25 122
164 122 171 0 2 -38 -22 -85 -55 -47 -33 -89 -60 -94 -60 -4 0 -40 53 -81 118
-252 401 -593 791 -961 1099 l-77 65 29 64 c36 79 38 138 7 165 -43 35 -203
127 -363 207 -530 264 -1062 438 -1403 459 l-102 6 6 51 c52 461 127 800 310
1408 41 136 77 256 81 265 3 10 -135 -121 -306 -292 l-312 -310 5 105 c9 161
18 510 14 510 -2 0 -78 -87 -168 -194 -91 -107 -167 -195 -170 -195 -3 -1
-102 230 -219 512 -118 281 -217 516 -221 520 -4 5 -11 0 -14 -10z m-1582
-10013 c48 -18 147 -93 206 -156 111 -117 204 -245 406 -554 152 -233 169
-261 131 -216 l-24 30 -295 -17 c-494 -29 -909 -69 -1233 -119 -38 -6 -86 -12
-107 -12 -20 -1 -34 -4 -31 -8 2 -5 0 -8 -5 -8 -6 0 -24 -22 -42 -50 -18 -27
-34 -50 -37 -50 -3 0 1 10 10 23 8 12 82 143 166 290 252 447 358 606 485 732
132 130 242 164 370 115z m3207 -16 c108 -59 253 -228 401 -469 45 -74 293
-510 337 -592 19 -37 4 -26 -21 15 -23 36 -24 37 -88 39 -36 1 -153 11 -260
22 -317 34 -584 59 -755 70 -88 6 -226 16 -307 21 -213 14 -258 13 -281 -7
-27 -24 17 46 194 312 257 387 409 554 558 611 58 22 158 12 222 -22z m-4371
-1347 c0 -2 -10 -12 -22 -23 l-23 -19 19 23 c18 21 26 27 26 19z m5331 -44
c13 -16 12 -17 -3 -4 -17 13 -22 21 -14 21 2 0 10 -8 17 -17z m-5371 -6 c0 -2
-19 -21 -42 -42 l-43 -40 40 43 c36 39 45 47 45 39z"/>
</g>
</svg>
